<svg xmlns="http://www.w3.org/2000/svg" xmlns:xlink="http://www.w3.org/1999/xlink" preserveAspectRatio="xMidYMid" width="60" height="60" viewBox="0 0 60 60">
  <defs>
    <style>
      .cls-1 {
        fill: #000;
        fill-rule: evenodd;
      }
    </style>
  </defs>
  <path d="M31.413,29.999 L59.707,58.292 C60.098,58.682 60.098,59.315 59.707,59.707 C59.512,59.901 59.256,59.999 59.000,59.999 C58.744,59.999 58.488,59.901 58.293,59.707 L29.999,31.413 L1.707,59.707 C1.512,59.901 1.256,59.999 1.000,59.999 C0.744,59.999 0.488,59.901 0.293,59.707 C-0.098,59.315 -0.098,58.682 0.293,58.292 L28.584,29.999 L0.293,1.709 C-0.098,1.318 -0.098,0.685 0.293,0.294 C0.684,-0.097 1.316,-0.097 1.707,0.294 L29.999,28.585 L58.290,0.292 C58.681,-0.098 59.314,-0.098 59.704,0.292 C60.095,0.683 60.095,1.316 59.704,1.706 L31.413,29.999 Z" class="cls-1"/>
</svg>
